<svg width="23" height="25" viewBox="0 0 23 25" fill="none" xmlns="http://www.w3.org/2000/svg">
<path d="M23 19.6426C23 20.4588 22.3913 21.1205 21.6404 21.1205H1.35956C0.608691 21.1205 0 20.4588 0 19.6426V5.35723C0 4.54106 0.608691 3.87939 1.35956 3.87939H21.6404C22.3914 3.87939 23 4.54106 23 5.35723V19.6426Z" fill="#306FC5"/>
<path opacity="0.15" d="M0.966584 19.6426V5.35723C0.966584 4.54106 1.57537 3.87939 2.32623 3.87939H1.35952C0.608691 3.87939 0 4.54102 0 5.35723V19.6426C0 20.4588 0.608691 21.1205 1.35956 21.1205H2.32628C1.57541 21.1205 0.966584 20.4588 0.966584 19.6426Z" fill="#202121"/>
<path d="M3.35059 10.7787H4.0378L3.69428 9.828L3.35059 10.7787Z" fill="white"/>
<path d="M7.00537 13.9701V14.4115H8.16117V14.887H7.00537V15.3964H8.28605L8.87951 14.6832L8.31731 13.9701H7.00537Z" fill="white"/>
<path d="M16.0326 9.828L15.6577 10.7787H16.3762L16.0326 9.828Z" fill="white"/>
<path d="M10.3478 15.6677V13.7324L9.53564 14.6832L10.3478 15.6677Z" fill="white"/>
<path d="M11.8786 14.2758C11.8473 14.0721 11.7222 13.9701 11.5347 13.9701H10.8789V14.5812H11.5662C11.7535 14.5813 11.8786 14.4795 11.8786 14.2758Z" fill="white"/>
<path d="M14.0645 14.5135C14.127 14.4794 14.1584 14.3775 14.1584 14.2758C14.1896 14.1401 14.127 14.0721 14.0645 14.0381C14.0022 14.0042 13.9084 14.0042 13.8148 14.0042H13.1899V14.5475H13.8148C13.9083 14.5475 14.0022 14.5475 14.0645 14.5135Z" fill="white"/>
<path d="M18.5626 8.94519V9.35261L18.3753 8.94519H16.9073V9.35261L16.7198 8.94519H14.7207C14.3772 8.94519 14.0959 9.01316 13.8461 9.14895V8.94519H12.4406V8.97917V9.14895C12.2844 9.01321 12.097 8.94519 11.8471 8.94519H6.81811L6.47437 9.79402L6.13085 8.94519H5.00641H4.53783V9.35261L4.38163 8.94519H4.35037H3.00725L2.38243 10.5409L1.66409 12.2724L1.65088 12.3065H1.66409H3.25715H3.2771L3.28842 12.2724L3.47592 11.7633H3.88197L4.06938 12.3065H5.8809V12.2724V11.899L6.03719 12.3064H6.94295L7.09905 11.899V12.2724V12.3065H7.81748H11.4097H11.4409V11.4237H11.5035C11.5659 11.4237 11.5659 11.4237 11.5659 11.5256V12.2725H13.815V12.0688C14.0024 12.1708 14.2833 12.2725 14.6582 12.2725H15.5954L15.7828 11.7294H16.22L16.4074 12.2725H18.219V11.933V11.7633L18.5003 12.2725H18.5626H18.5939H19.9683V8.94519H18.5627H18.5626ZM7.97377 11.7973H7.66134H7.47397V11.5937V9.92986L7.4427 10.0077V10.0068L6.71605 11.7973H6.69304H6.52598H6.25569L5.50607 9.92986V11.7973H4.44412L4.22549 11.288H3.16335L2.94467 11.7973H2.39559L3.31964 9.42058H4.10047L4.97505 11.6953V9.42058H5.16242H5.8026L5.81734 9.45461H5.81842L6.21252 10.3869L6.49552 11.0855L6.50554 11.0503L7.13022 9.42063H7.97372V11.7973H7.97377ZM10.1291 9.92986H8.91088V10.3712H10.0979V10.8465H8.91088V11.322H10.1291V11.8311H8.37991V9.42063H10.1291V9.92986ZM12.357 10.8053C12.3578 10.8061 12.3589 10.8067 12.3598 10.8074C12.3717 10.821 12.3818 10.8346 12.3904 10.8476C12.4502 10.9329 12.4986 11.0597 12.501 11.2456C12.5012 11.2489 12.5014 11.252 12.5015 11.2552C12.5015 11.2571 12.5018 11.2587 12.5018 11.2606C12.5018 11.2617 12.5018 11.2625 12.5018 11.2635C12.5025 11.2823 12.5029 11.3013 12.5029 11.322V11.7973H12.0345V11.5256C12.0345 11.3898 12.0345 11.1861 11.9406 11.0503C11.9111 11.0182 11.8813 10.997 11.8487 10.982C11.8019 10.949 11.7132 10.9485 11.5659 10.9485H11.0035V11.7973H10.4726V9.42063H11.6597C11.9406 9.42063 12.1281 9.42063 12.2844 9.52249C12.4374 9.62239 12.5299 9.78806 12.5334 10.0504C12.5262 10.4117 12.3128 10.61 12.1594 10.6768C12.1594 10.6768 12.2636 10.6996 12.357 10.8053ZM13.4089 11.7973H12.8778V9.42058H13.4089V11.7973ZM19.4999 11.7973H18.8126L17.8131 9.99773V11.4916L17.8098 11.4881V11.7988H17.2821V11.7973H16.7511L16.5636 11.2881H15.4703L15.2829 11.8312H14.6894C14.4397 11.8312 14.1271 11.7634 13.9398 11.5596C13.7524 11.3559 13.6588 11.0843 13.6588 10.643C13.6588 10.3035 13.7212 9.96374 13.9398 9.69221C14.0959 9.48835 14.3771 9.42063 14.7206 9.42063H15.2205V9.92986H14.7206C14.5332 9.92986 14.4397 9.9637 14.3145 10.0657C14.221 10.1676 14.1584 10.3712 14.1584 10.6089C14.1584 10.8805 14.1897 11.0503 14.3145 11.1861C14.4084 11.2881 14.5333 11.322 14.6894 11.322H14.908L15.6264 9.45471H15.9389H16.4074L17.2821 11.7295V11.6135V10.8466V10.7788V9.45476H18.0629L18.9686 11.1183V9.45476H19.4998V11.7974H19.4999V11.7973Z" fill="white"/>
<path d="M11.9116 10.4104C11.9207 10.3998 11.9289 10.3878 11.936 10.374C11.9643 10.3254 11.9967 10.2377 11.9792 10.118C11.9785 10.107 11.9767 10.0969 11.9745 10.087C11.9739 10.0843 11.974 10.0819 11.9733 10.0792L11.973 10.0792C11.9575 10.0211 11.9178 9.98533 11.8782 9.96365C11.8156 9.92981 11.7219 9.92981 11.6282 9.92981H11.0034V10.4731H11.6282C11.7219 10.4731 11.8157 10.4731 11.8782 10.4391C11.8876 10.4339 11.896 10.4269 11.904 10.4189L11.9041 10.4194C11.9041 10.4193 11.9073 10.4157 11.9116 10.4104Z" fill="white"/>
<path d="M21.3426 15.1926C21.3426 14.955 21.2802 14.7172 21.1866 14.5475V13.0197H21.1851V12.9177C21.1851 12.9177 19.8759 12.9177 19.681 12.9177C19.4862 12.9177 19.2499 13.1214 19.2499 13.1214V12.9177H17.8131C17.5943 12.9177 17.3134 12.9857 17.1883 13.1214V12.9177H14.627V13.0197V13.1213C14.4397 12.9517 14.0958 12.9177 13.9398 12.9177H12.253V13.0197V13.1213C12.0969 12.9516 11.7219 12.9176 11.5343 12.9176H9.66048L9.22307 13.4269L8.81698 12.9176H8.68621H8.47342H6.00586V13.0196V13.2878V16.3469H8.75463L9.20627 15.8559L9.59777 16.3469H9.62912H11.213H11.2848H11.316H11.3471V16.0074V15.5661H11.5034C11.7219 15.5661 12.0031 15.5661 12.2217 15.4641V16.3128V16.3809H13.6274V16.3128V15.4981H13.6897C13.7835 15.4981 13.7835 15.4981 13.7835 15.5999V16.3128V16.3809H18.0315C18.3128 16.3809 18.5938 16.3128 18.7499 16.177V16.3128V16.3809H20.0932C20.3741 16.3809 20.6555 16.3469 20.8429 16.2111C21.1305 16.0235 21.3117 15.6915 21.3387 15.2956C21.3399 15.2839 21.3415 15.2721 21.3425 15.2604L21.3407 15.2585C21.3418 15.2365 21.3426 15.2148 21.3426 15.1926ZM11.5034 14.9889H10.8786V15.0906V15.2944V15.4981V15.8716H9.85189L9.25434 15.1246L9.25227 15.1271L9.22307 15.0906L8.5359 15.8716H6.53684V13.495H8.56717L9.12186 14.1554L9.23848 14.2937L9.25429 14.2759L9.91033 13.495H11.5658C11.8871 13.495 12.2469 13.5812 12.3832 13.9365C12.3996 14.0069 12.4091 14.0851 12.4091 14.174C12.4091 14.853 11.9718 14.9889 11.5034 14.9889ZM14.627 14.9549C14.6894 15.0565 14.7207 15.1926 14.7207 15.3964V15.8716H14.1897V15.5661C14.1897 15.4301 14.1897 15.1926 14.0959 15.0906C14.0336 14.9889 13.9085 14.9889 13.7212 14.9889H13.159V15.8716H12.628V13.461H13.8149C14.0646 13.461 14.2833 13.461 14.4397 13.5628C14.5958 13.6647 14.7207 13.8345 14.7207 14.1061C14.7207 14.4795 14.5021 14.6832 14.3459 14.7512C14.5021 14.8189 14.5958 14.887 14.627 14.9549ZM16.7823 13.9701H15.564V14.4115H16.751V14.8869H15.564V15.3623H16.7823V15.8716H15.0331V13.461H16.7823V13.9701ZM18.0942 15.8716H17.0946V15.3624H18.0942C18.1877 15.3624 18.2503 15.3624 18.3129 15.2944C18.3442 15.2604 18.3752 15.1926 18.3752 15.1246C18.3752 15.0566 18.3442 14.989 18.3129 14.955C18.2816 14.921 18.219 14.887 18.1253 14.887C17.6255 14.8531 17.0321 14.887 17.0321 14.1402C17.0321 13.8006 17.2195 13.4271 17.7818 13.4271H18.8125V14.0042H17.8443C17.7506 14.0042 17.688 14.0042 17.6255 14.0382C17.5632 14.0722 17.5632 14.1402 17.5632 14.208C17.5632 14.3099 17.6255 14.3439 17.688 14.3776C17.7506 14.4116 17.813 14.4116 17.8754 14.4116H18.1566C18.4377 14.4116 18.6251 14.4795 18.75 14.6154C18.8438 14.7173 18.9063 14.887 18.9063 15.1246C18.9063 15.6338 18.6251 15.8716 18.0942 15.8716ZM20.7804 15.6338C20.6556 15.7698 20.4369 15.8716 20.1244 15.8716H19.1251V15.3624H20.1244C20.2181 15.3624 20.2807 15.3624 20.3431 15.2944C20.3743 15.2604 20.4056 15.1926 20.4056 15.1246C20.4056 15.0566 20.3743 14.989 20.3431 14.955C20.3119 14.921 20.2495 14.887 20.1557 14.887C19.6561 14.8531 19.0624 14.887 19.0624 14.1402C19.0624 13.8175 19.2323 13.526 19.6512 13.4394C19.7013 13.4319 19.7542 13.4271 19.8121 13.4271H20.843V14.0042H20.1557H19.9059H19.8746C19.7809 14.0042 19.7185 14.0042 19.6561 14.0382C19.6246 14.0722 19.5934 14.1402 19.5934 14.208C19.5934 14.3099 19.6246 14.3439 19.7185 14.3776C19.7809 14.4116 19.8434 14.4116 19.9059 14.4116H19.9369H20.1869C20.3234 14.4116 20.4267 14.4299 20.5211 14.466C20.6077 14.5 20.8941 14.6393 20.9581 15.0028C20.9637 15.0409 20.9678 15.0806 20.9678 15.1246C20.9678 15.3284 20.9053 15.4981 20.7804 15.6338Z" fill="white"/>
</svg>
