<svg width="20" height="14" viewBox="0 0 20 14" fill="none" xmlns="http://www.w3.org/2000/svg">
<path fill-rule="evenodd" clip-rule="evenodd" d="M19.7067 13.129H0.293255C0.129032 13.129 0 12.9883 0 12.8358V1.16423C0 1 0.129032 0.870972 0.293255 0.870972H19.7067C19.871 0.870972 20 1 20 1.16423V12.8358C19.9883 12.9883 19.8592 13.129 19.7067 13.129ZM0.56305 12.5543H19.4135V1.44575H0.56305V12.5543Z" fill="black"/>
<path fill-rule="evenodd" clip-rule="evenodd" d="M15.576 9.58657H14.5555C14.3912 9.58657 14.2622 9.45754 14.2622 9.29332V7.2288C14.2622 7.06458 14.3912 6.93555 14.5555 6.93555H15.576C16.315 6.93555 16.8898 7.52206 16.8898 8.24933C16.8898 8.9766 16.315 9.58657 15.576 9.58657ZM14.8253 9.01179H15.576C15.9865 9.01179 16.3267 8.67162 16.3267 8.26106C16.3267 7.86223 15.9865 7.52206 15.576 7.52206H14.8253V9.01179Z" fill="black"/>
<path fill-rule="evenodd" clip-rule="evenodd" d="M14.5555 11.1112C14.3912 11.1112 14.2622 10.9822 14.2622 10.8179V9.29301C14.2622 9.12879 14.3912 8.99976 14.5555 8.99976C14.7197 8.99976 14.8487 9.12879 14.8487 9.29301V10.8179C14.8253 10.9822 14.6962 11.1112 14.5555 11.1112Z" fill="black"/>
<path fill-rule="evenodd" clip-rule="evenodd" d="M17.923 11.8038H13.1254C12.9142 11.8038 12.75 11.6278 12.75 11.4167V6.64247C12.75 6.43132 12.926 6.25537 13.1254 6.25537H17.923C18.1342 6.25537 18.3101 6.43132 18.3101 6.64247V11.4167C18.3101 11.6278 18.1342 11.8038 17.923 11.8038ZM13.3248 11.2407H17.7353V6.81842H13.3248V11.2407Z" fill="black"/>
<path fill-rule="evenodd" clip-rule="evenodd" d="M19.7067 5.43388H0.293255C0.129032 5.43388 0 5.30484 0 5.14062C0 4.98813 0.129032 4.84737 0.293255 4.84737H19.7067C19.871 4.84737 20 4.98813 20 5.14062C20 5.30484 19.8592 5.43388 19.7067 5.43388ZM19.7067 2.98226H0.293255C0.129032 2.98226 0 2.85323 0 2.68901C0 2.52478 0.129032 2.39575 0.293255 2.39575H19.7067C19.871 2.39575 20 2.52478 20 2.68901C20 2.85323 19.8592 2.98226 19.7067 2.98226Z" fill="black"/>
<path fill-rule="evenodd" clip-rule="evenodd" d="M11.6831 7.5809H1.44267C1.27845 7.5809 1.14941 7.45186 1.14941 7.28764C1.14941 7.12342 1.27845 6.99438 1.44267 6.99438H11.6831C11.8474 6.99438 11.9764 7.12342 11.9764 7.28764C11.9764 7.45186 11.8474 7.5809 11.6831 7.5809Z" fill="black"/>
<path fill-rule="evenodd" clip-rule="evenodd" d="M11.6831 9.42269H1.44267C1.27845 9.42269 1.14941 9.29366 1.14941 9.12944C1.14941 8.96521 1.27845 8.83618 1.44267 8.83618H11.6831C11.8474 8.83618 11.9764 8.96521 11.9764 9.12944C11.9764 9.29366 11.8474 9.42269 11.6831 9.42269Z" fill="black"/>
<path fill-rule="evenodd" clip-rule="evenodd" d="M11.6831 11.252H1.44267C1.27845 11.252 1.14941 11.123 1.14941 10.9588C1.14941 10.7946 1.27845 10.6655 1.44267 10.6655H11.6831C11.8474 10.6655 11.9764 10.7946 11.9764 10.9588C11.9764 11.123 11.8474 11.252 11.6831 11.252Z" fill="black"/>
</svg>
