<svg width="20" height="20" viewBox="0 0 20 20" fill="none" xmlns="http://www.w3.org/2000/svg">
<path d="M18.8 3.19995H1.2C0.538398 3.19995 0 3.73835 0 4.39995V15.6C0 16.2616 0.538398 16.8 1.2 16.8H18.8C19.4616 16.8 20 16.2616 20 15.6V4.39995C20 3.73835 19.4616 3.19995 18.8 3.19995ZM19.2 15.6C19.2 15.82 19.02 16 18.8 16H1.2C0.979219 16 0.8 15.82 0.8 15.6V4.39995C0.8 4.17913 0.979219 3.99995 1.2 3.99995H18.8C19.02 3.99995 19.2 4.17913 19.2 4.39995V15.6Z" fill="black"/>
<path d="M19.5999 6.80005H0.399902V8.40005H19.5999V6.80005Z" fill="black"/>
<path d="M19.6 6.40002H0.4C0.179219 6.40002 0 6.5792 0 6.80002V8.40002C0 8.62084 0.179219 8.80002 0.4 8.80002H19.6C19.8208 8.80002 20 8.62084 20 8.40002V6.80002C20 6.5792 19.8208 6.40002 19.6 6.40002ZM19.2 8.00002H0.8V7.20002H19.2V8.00002V8.00002Z" fill="black"/>
<path d="M10.8002 11.2H3.6002C3.37941 11.2 3.2002 11.3792 3.2002 11.6C3.2002 11.8207 3.37941 12 3.6002 12H10.8002C11.021 12 11.2002 11.8207 11.2002 11.6C11.2002 11.3791 11.021 11.2 10.8002 11.2Z" fill="black"/>
<path d="M7.60019 12.8H3.6002C3.37941 12.8 3.2002 12.9793 3.2002 13.2C3.2002 13.4208 3.37941 13.6 3.6002 13.6H7.60019C7.82098 13.6 8.00019 13.4208 8.00019 13.2C8.00019 12.9793 7.82098 12.8 7.60019 12.8Z" fill="black"/>
</svg>
