<svg width="25" height="25" viewBox="0 0 25 25" fill="none" xmlns="http://www.w3.org/2000/svg">
<path d="M25 19.6426C25 20.4588 24.3384 21.1205 23.5222 21.1205H1.47778C0.661621 21.1205 0 20.4587 0 19.6426V5.35723C0 4.54102 0.661621 3.87939 1.47778 3.87939H23.5222C24.3384 3.87939 25 4.54106 25 5.35723L25 19.6426Z" fill="#34495E"/>
<path opacity="0.15" d="M1.05063 19.6426V5.35723C1.05063 4.54102 1.71235 3.87939 2.52852 3.87939H1.47773C0.661621 3.87939 0 4.54111 0 5.35723V19.6426C0 20.4588 0.661621 21.1205 1.47778 21.1205H2.52856C1.7124 21.1205 1.05063 20.4587 1.05063 19.6426Z" fill="#202121"/>
<path d="M15.1069 12.4902C15.1089 12.0197 14.9325 11.5485 14.5774 11.1935C14.2216 10.8376 13.7493 10.6614 13.2778 10.6642C13.2755 10.6642 13.2733 10.6641 13.271 10.6641C12.2472 10.6641 11.4351 11.476 11.4351 12.5001C11.4351 13.5141 12.2572 14.336 13.271 14.336C14.2951 14.336 15.1071 13.5239 15.1071 12.5001C15.1071 12.4967 15.1069 12.4936 15.1069 12.4902Z" fill="#F26E21"/>
<path d="M11.0934 13.2768C10.8189 13.5515 10.5657 13.6589 10.2929 13.6647C9.62827 13.6587 9.13965 13.1665 9.13965 12.4648C9.13965 12.1116 9.27339 11.8221 9.48525 11.5748C9.68394 11.3862 9.93989 11.2643 10.2342 11.2643C10.552 11.2643 10.7992 11.3702 11.0815 11.6527V10.8406C10.7993 10.6994 10.5519 10.6288 10.2342 10.6288C9.7854 10.6609 9.36221 10.8422 9.0376 11.127C8.94404 11.2112 8.85439 11.3041 8.77837 11.4104C8.54126 11.7177 8.39795 12.0941 8.39795 12.5003C8.39795 13.524 9.2103 14.3008 10.2342 14.3008C10.2392 14.3008 10.2441 14.3004 10.2489 14.3003C10.2558 14.3004 10.2626 14.3008 10.2694 14.3008C10.5519 14.3008 10.7992 14.2303 11.1169 14.0891L11.0934 13.2768C11.0814 13.2887 11.1052 13.2998 11.0934 13.3111V13.2768Z" fill="#E7E8E3"/>
<path d="M17.4249 11.1345L16.6252 13.1004L15.7072 10.7699H14.9658L16.4134 14.3361H16.8018L18.32 10.7699H17.5787L17.4249 11.1345Z" fill="#E7E8E3"/>
<path d="M18.6025 12.3235V14.2303H20.5093H20.5444V13.6652H19.9442H19.3087V13.0298V12.7121H20.5093V12.1116H19.3087V11.3702H20.5444V10.7699H18.6025V12.3235Z" fill="#E7E8E3"/>
<path d="M2.64312 10.7699H1.6543V14.2303H2.64307C3.17261 14.2303 3.56094 14.0889 3.87871 13.8418C4.26704 13.524 4.51431 13.0298 4.51431 12.5003C4.51436 11.476 3.77275 10.7699 2.64312 10.7699ZM3.45513 13.3829C3.24326 13.5594 2.96079 13.6652 2.53706 13.6652H2.3252V11.3702H2.50171C2.92544 11.3702 3.20791 11.4408 3.41982 11.6526C3.66694 11.8643 3.80825 12.1823 3.80825 12.5001C3.84355 12.8179 3.70234 13.1708 3.45513 13.3829Z" fill="#E7E8E3"/>
<path d="M5.50337 10.7695H4.83252V14.2298H5.50337V10.7695Z" fill="#E7E8E3"/>
<path d="M7.19761 12.1116C6.77397 11.9704 6.66792 11.8644 6.66792 11.6879C6.66792 11.476 6.87978 11.2995 7.16226 11.2995C7.37412 11.2995 7.55063 11.3702 7.7272 11.5821L8.08037 11.1231C7.7978 10.8758 7.44487 10.7347 7.05645 10.7347C6.45605 10.7347 5.96172 11.1585 5.96172 11.7232C5.96172 12.2177 6.17378 12.4295 6.80923 12.6766C7.0917 12.7824 7.19766 12.8178 7.26841 12.8885C7.40938 12.959 7.48013 13.1003 7.48013 13.2414C7.48013 13.5239 7.26841 13.7358 6.95044 13.7358C6.63237 13.7358 6.35015 13.5593 6.20889 13.2768L5.78516 13.7005C6.10308 14.1595 6.49145 14.3713 6.98579 14.3713C7.69189 14.3713 8.18599 13.9123 8.18599 13.2414C8.18608 12.6413 7.97441 12.3941 7.19761 12.1116Z" fill="#E7E8E3"/>
<path d="M22.4512 12.7824C22.9806 12.6767 23.2632 12.3235 23.2632 11.794C23.2632 11.1585 22.8041 10.7699 22.0274 10.7699H21.0034V14.2303H21.6743V12.8531H21.7803L22.7334 14.2303H23.5456L22.4512 12.7824ZM21.886 12.3587H21.6743V11.2996H21.886C22.3098 11.2996 22.557 11.4761 22.557 11.8294C22.557 12.1823 22.3098 12.3587 21.886 12.3587Z" fill="#E7E8E3"/>
</svg>
