<svg width="202" height="39" viewBox="0 0 202 39" fill="none" xmlns="http://www.w3.org/2000/svg">
<g clip-path="url(#clip0_120_1511)">
<path d="M196.908 0V8.20534C195.201 8.33253 191.522 10.4577 194.186 12.2342C198.98 15.4548 198.565 5.74374 198.565 3.6924L201.466 6.56428C203.401 3.74164 199.668 0.455397 196.908 0Z" fill="#D84B59"/>
<path d="M121.917 20.4067C121.274 17.2148 118.262 15.1594 114.459 14.5973C112.532 14.3594 108.621 14.2609 107.975 11.8978C107.415 9.99414 110.146 9.07925 111.559 9.05874C113.87 9.03002 119.638 13.5388 120.777 9.28027C121.336 7.20432 118.022 5.76018 116.53 5.33351C112.338 3.96321 106.115 3.90989 103.21 7.83615C102.528 8.79087 102.12 9.911 102.029 11.0772C101.864 16.5502 106.719 17.9 111.144 18.7C112.926 19.02 115.702 19.3236 116.423 21.3504C117.098 23.3073 114.351 24.6571 112.802 24.9156C109.794 25.4366 107.415 23.6232 105.758 21.3339L101.201 22.975C101.81 26.3023 105.207 28.4644 109.073 29.2357C109.892 29.4026 110.723 29.5041 111.559 29.5393C112.089 29.5639 112.619 29.5639 113.145 29.5393L113.804 29.49C117.343 29.1495 120.5 27.5823 121.502 24.6161C121.68 24.1173 121.818 23.6057 121.917 23.0858C122.087 22.2007 122.087 21.2918 121.917 20.4067Z" fill="#D44C55"/>
<path d="M21.7391 18.2651C21.6894 17.5799 21.652 16.9481 21.652 16.4025H10.8798V18.0435H19.1661C19.1661 19.4795 19.5266 21.6498 19.075 23.2416C19.0005 23.5164 18.8919 23.781 18.7518 24.0293C18.6786 24.1559 18.5955 24.2766 18.5033 24.3904C17.3621 25.8246 15.7084 26.7703 13.8836 27.0325L13.5853 27.0694C13.0741 27.1186 12.5593 27.1186 12.0482 27.0694C11.6546 27.0346 11.2641 26.9715 10.8798 26.8807C9.11237 26.4442 7.47325 25.6027 6.0944 24.4241C4.71556 23.2454 3.63559 21.7625 2.94151 20.0949C2.80122 19.7363 2.68493 19.369 2.59345 18.9954C2.51444 18.6824 2.45772 18.3643 2.42362 18.0435C2.37871 17.6774 2.36076 17.3086 2.3698 16.9399C2.3698 16.8989 2.3698 16.8538 2.3698 16.8127C2.61839 11.1757 6.86924 7.67198 11.6546 7.37658C12.1125 7.34377 12.5722 7.34377 13.0302 7.37658C14.5977 7.48033 16.124 7.91838 17.5047 8.66072C18.1427 9.01766 21.159 10.5685 20.8192 8.60739C20.5168 6.51913 18.1014 5.62064 15.3834 5.32525C14.9691 5.28012 14.5879 5.25139 14.1902 5.23498C13.7924 5.21857 13.4486 5.20215 13.084 5.20215C12.1642 5.20215 11.2651 5.24318 10.4613 5.31293H10.4324H10.3371C9.56647 5.38267 8.88284 5.47704 8.35666 5.57551L7.97542 5.64935C7.87184 5.66986 7.76826 5.69448 7.66883 5.7232C2.77161 6.91707 0.517797 11.0074 0.0786212 15.4794C0.0763901 15.5094 0.0763901 15.5396 0.0786212 15.5696C-0.0555823 17.0746 -0.00275531 18.5903 0.236013 20.0825C0.865774 24.2919 4.79347 27.4961 9.22666 28.6982C9.58297 28.7966 9.94347 28.8828 10.3039 28.9525H10.3619C10.5359 28.9853 10.7099 29.0182 10.8839 29.0428C10.9834 29.0428 11.0787 29.0756 11.1782 29.0838C14.733 29.5761 18.3541 28.7474 20.7075 26.1258C21.1966 25.5327 21.5271 24.8273 21.6686 24.0744C21.8377 23.251 21.9183 22.4121 21.9089 21.5718C21.9006 20.4805 21.8095 19.3195 21.7391 18.2651Z" fill="#333333"/>
<path d="M92.3924 25.7524C90.4286 23.2498 91.6715 16.9809 91.6715 13.949H97.0576V12.308H91.6715V7.38477H89.1856V12.308H85.8711V13.949H89.1856C89.1856 14.9788 89.0407 16.4681 88.9329 18.1133C88.7962 20.2508 88.7175 22.6262 89.0903 24.616C89.1706 25.0617 89.2856 25.5007 89.4343 25.9288C89.7162 26.9218 90.3675 27.772 91.2572 28.3084C91.6483 28.5064 92.0673 28.6447 92.5002 28.7187C92.8157 28.781 93.1357 28.818 93.4573 28.8294C94.9501 28.8364 96.438 28.6586 97.8863 28.3002C96.9831 25.6171 94.0124 27.8981 92.3924 25.7524Z" fill="#333333"/>
<path d="M184.478 26.2571C188.008 22.3637 186.848 20.1524 186.463 15.5902C186.384 14.6384 187.13 13.7235 186.823 12.7881C186.702 12.3267 186.441 11.9127 186.077 11.6011C185.712 11.2894 185.261 11.0947 184.782 11.0426C184.303 10.9906 183.82 11.0837 183.396 11.3097C182.972 11.5356 182.627 11.8838 182.407 12.3081C181.633 12.13 180.85 11.9931 180.062 11.8978C178.778 11.7235 177.476 11.7235 176.192 11.8978C175.473 11.9932 174.774 12.2009 174.12 12.5132C169.149 14.9461 167.906 22.1709 171.854 26.052C174.402 28.5998 180.65 27.2459 181.823 30.7906C182.407 32.7025 180.016 34.524 178.264 34.3558C176.424 34.1835 175.256 32.7148 174.535 31.1927H169.563C169.799 32.9447 170.556 34.5879 171.736 35.9142C172.916 37.2405 174.467 38.1902 176.192 38.6431C176.838 38.8281 177.502 38.9437 178.172 38.9877C178.614 39.0206 179.057 39.0206 179.498 38.9877C179.692 38.9877 179.886 38.9672 180.083 38.9262C181.504 38.7396 182.865 38.2375 184.064 37.4575C188.207 34.7456 188.365 29.129 184.478 26.2571ZM180.261 23.5986C175.703 26.171 172.355 18.7739 176.606 16.4148C176.957 16.2269 177.332 16.0887 177.721 16.0046H179.192C182.204 16.7061 183.617 21.6827 180.261 23.5986Z" fill="#D44C55"/>
<path d="M44.8537 19.2826C47.4846 19.2826 51.9882 20.0416 55.0127 19.2826H44.8537ZM44.8537 19.2826C47.4846 19.2826 51.9882 20.0416 55.0127 19.2826H44.8537ZM59.3548 18.778C59.3703 17.3694 58.9352 15.9921 58.1118 14.8435C56.9812 13.448 55.3918 12.4897 53.6207 12.1357C52.0307 11.7759 50.3804 11.7647 48.7856 12.1029C48.5784 12.1439 48.3712 12.1932 48.1682 12.2506C46.8645 12.5083 45.6573 13.1155 44.6783 14.0061C43.6993 14.8967 42.9861 16.0365 42.6164 17.301C42.1655 18.7785 42.0495 20.3362 42.2767 21.8632C42.691 24.5094 44.0914 26.9587 46.5151 28.0418C46.8869 28.2031 47.2688 28.3401 47.6586 28.4521C48.0978 28.5845 48.5466 28.6833 49.001 28.7475C49.5014 28.8232 50.0071 28.8603 50.5133 28.8582C53.3555 28.8582 56.2019 27.7505 58.5138 26.2448C56.8565 23.2909 53.9232 26.4582 51.4704 26.8356C51.2552 26.8693 51.0378 26.8872 50.8199 26.889C50.3388 26.9009 49.859 26.8358 49.3988 26.6961C47.2195 26.0438 45.6202 23.8612 44.9573 21.7319C44.9158 21.5965 44.8745 21.457 44.8414 21.3216H59.3424C59.3424 20.657 59.3424 19.9924 59.3424 19.3359C59.3466 19.3142 59.3466 19.292 59.3424 19.2703C59.359 19.1117 59.3631 18.9476 59.3548 18.778ZM56.7819 18.5195C56.2461 18.8822 55.6458 19.1411 55.0127 19.2826H44.8537C46.0221 12.9563 55.713 12.0373 56.7819 18.5195ZM44.8537 19.2826C47.4846 19.2826 51.9882 20.0416 55.0127 19.2826H44.8537ZM44.8537 19.2826C47.4846 19.2826 51.9882 20.0416 55.0127 19.2826H44.8537Z" fill="#333333"/>
<path d="M79.2423 12.3081V14.3594C78.0909 13.3901 76.7346 12.6891 75.2732 12.3081C74.9417 12.2178 74.6102 12.144 74.2705 12.0865C73.0484 11.8705 71.7964 11.8831 70.579 12.1235C68.9025 12.4318 67.3695 13.2626 66.2037 14.4948C65.4575 15.3046 64.9027 16.2688 64.5797 17.3174C64.2818 18.2573 64.1322 19.2371 64.1363 20.2221C64.1363 20.7274 64.1737 21.232 64.2482 21.7319C64.6625 24.4315 66.1084 26.9546 68.47 28.1074C70.09 28.928 72.0953 28.7475 73.8562 28.7064C76.0313 28.7064 77.5643 27.9926 79.2423 26.6551V28.7064H81.7282V12.2958L79.2423 12.3081ZM74.2705 26.7248C74.1213 26.7536 73.9722 26.7741 73.8272 26.7946L73.4418 26.6674V26.8274C66.0173 27.3649 64.1114 15.8651 71.4697 14.2076L71.7804 14.142C79.9052 12.7183 82.1425 25.2725 74.2705 26.7248Z" fill="#333333"/>
<path d="M132.275 12.1603C120.628 15.4753 127.063 32.0788 138.49 28.7187C149.66 25.4366 143.399 9.02589 132.275 12.1603ZM136.418 24.6571C131.355 26.5361 129.457 17.941 133.932 16.3122C139.045 14.4537 141.286 22.8519 136.418 24.6571ZM165.42 20.1113C165.006 15.2332 163.253 11.0854 156.719 11.9757C155.323 12.1644 154.192 12.8578 152.991 13.5388C152.576 11.6598 150.041 12.308 148.433 12.308V28.7187H153.405C153.405 25.5761 151.938 16.1892 157.134 16.1892C162.329 16.1892 160.863 25.6048 160.863 28.7187H165.42C165.42 26.1956 165.669 23.0242 165.42 20.1113Z" fill="#D44C55"/>
<path d="M36.4018 12.308C35.7426 12.2588 35.0806 12.2588 34.4213 12.308C33.1296 12.4008 31.8617 12.7015 30.6676 13.1983L30.3155 13.3542C30.1871 13.4117 30.0545 13.4732 29.9261 13.5388C29.8986 13.3992 29.8598 13.262 29.8101 13.1286C29.5076 12.308 28.94 12.308 27.8545 12.308V28.7187H29.9261C29.9261 26.4787 29.5449 23.2089 29.9261 20.3288C29.9261 20.1893 29.9633 20.0539 29.984 19.9185C30.4191 17.219 31.5875 14.9255 34.4836 14.2568C35.8259 13.9491 37.3009 14.5768 38.6267 14.7696L39.041 12.7183C38.174 12.5106 37.2913 12.3734 36.4018 12.308Z" fill="#333333"/>
<path d="M73.4419 26.6674V26.8274C73.5662 26.8274 73.6988 26.8274 73.8273 26.7945L73.4419 26.6674Z" fill="#FCB017"/>
</g>
<defs>
<clipPath id="clip0_120_1511">
<rect width="202" height="39" fill="white"/>
</clipPath>
</defs>
</svg>
