<svg width="25" height="25" viewBox="0 0 25 25" fill="none" xmlns="http://www.w3.org/2000/svg">
<path d="M25 19.6426C25 20.4588 24.3384 21.1205 23.5222 21.1205H1.47778C0.661621 21.1205 0 20.4588 0 19.6426V5.35723C0 4.54102 0.661621 3.87939 1.47778 3.87939H23.5222C24.3384 3.87939 25 4.54106 25 5.35723V19.6426Z" fill="white"/>
<path d="M5.54873 12.5994L4.96172 9.78342C4.86138 9.39509 4.56938 9.27957 4.20454 9.26428H1.51323L1.48926 9.39294C3.5854 9.9011 4.97236 11.127 5.54873 12.5994Z" fill="#F79F1A"/>
<path d="M11.7849 9.3208H10.046L8.95996 15.6942H10.696L11.7849 9.3208Z" fill="#059BBF"/>
<path d="M6.60884 15.6878L9.3437 9.3252H7.50332L5.802 13.6723L5.62041 13.0159C5.28691 12.2263 4.33379 11.0898 3.21484 10.3744L4.77002 15.69L6.60884 15.6878Z" fill="#059BBF"/>
<path d="M16.7449 13.6108C16.7513 12.8872 16.2867 12.3353 15.2855 11.8794C14.6771 11.585 14.3063 11.3886 14.3107 11.0899C14.3107 10.8259 14.6248 10.5424 15.3052 10.5424C15.8746 10.5336 16.2846 10.6579 16.6052 10.7866L16.7624 10.8587L16.998 9.47795C16.6533 9.34919 16.1145 9.21179 15.4406 9.21179C13.724 9.21179 12.5156 10.0756 12.5047 11.3145C12.4938 12.2307 13.3686 12.7411 14.0272 13.0464C14.7033 13.3576 14.9302 13.5568 14.9258 13.836C14.9215 14.2629 14.387 14.4576 13.8875 14.4576C13.1917 14.4576 12.8231 14.3616 12.2514 14.1235L12.0292 14.0214L11.7852 15.4496C12.1906 15.6268 12.9408 15.7817 13.7196 15.7881C15.5452 15.7881 16.7318 14.9353 16.7449 13.6108Z" fill="#059BBF"/>
<path d="M18.81 14.7389C19.0084 14.7389 20.7817 14.7411 21.0349 14.7411C21.0872 14.963 21.2464 15.6964 21.2464 15.6964H22.8583L21.4514 9.32739H20.11C19.6934 9.32739 19.3837 9.44082 19.2004 9.85518L16.6201 15.6964H18.4459C18.4458 15.6964 18.7423 14.9113 18.81 14.7389ZM20.0008 11.6525C19.9922 11.6699 20.1449 11.2839 20.2321 11.0439L20.3499 11.5936C20.3499 11.5936 20.6815 13.1161 20.7512 13.4346H19.3094C19.4534 13.0682 20.0008 11.6525 20.0008 11.6525Z" fill="#059BBF"/>
<path d="M23.5222 3.87939H1.47778C0.661621 3.87939 0 4.54102 0 5.35723V6.89102H25V5.35723C25 4.54102 24.3384 3.87939 23.5222 3.87939Z" fill="#059BBF"/>
<path d="M23.5222 21.1205H1.47778C0.661621 21.1205 0 20.4588 0 19.6427V18.1089H25V19.6427C25 20.4588 24.3384 21.1205 23.5222 21.1205Z" fill="#F79F1A"/>
<path opacity="0.15" d="M1.05063 19.6426V5.35723C1.05063 4.54102 1.7123 3.87939 2.52852 3.87939H1.47773C0.661621 3.87939 0 4.54102 0 5.35723V19.6426C0 20.4588 0.661621 21.1205 1.47778 21.1205H2.52856C1.71235 21.1205 1.05063 20.4588 1.05063 19.6426Z" fill="#202121"/>
</svg>
